<?xml version="1.0" encoding="UTF-8"?>
<!-- Created with Inkscape (https://www.inkscape.org/) -->
<svg width="46.794mm" height="46.794mm" version="1.1" viewBox="0 0 46.794 46.794" xmlns="https://www.w3.org/2000/svg">
 <g transform="translate(-145.48 66.61)">
  <g transform="matrix(.73268 0 0 .73268 147.18 -62.429)" fill="#fff">
   <path d="m9.5382 27.013c4.8362 0 9.3702-2.8418 9.3702-7.5223 0-4.647-3.3921-6.4524-8.094-8.0905l-1.8136-0.6352c-2.8547-1.003-3.9966-2.5075-3.9966-4.7474 0-2.5408 2.4517-4.0453 5.1721-4.0453 0.5374 0 1.0747 0.03343 1.5449 0.13373 0.5374 0.13372 0.8061 0.20059 1.3434 1.003l3.9295 5.7503h0.7053l-1.4106-7.3216c-1.6121-0.60178-3.5265-0.90267-5.508-0.90267-4.7019 0-9.2695 2.3068-9.2695 6.9873 0 3.7779 2.2838 6.1181 6.2804 7.5223l1.8136 0.6352c3.5936 1.2704 5.743 2.6745 5.743 5.5831 0 2.8083-2.5189 4.3797-5.7095 4.3797-0.97397 0-1.6457-0.1003-2.2502-0.2675-0.53736-0.1672-1.0076-0.5015-1.4442-1.2036l-4.0302-6.3521h-0.70529l1.4778 8.0572c2.0151 0.7689 4.3996 1.0364 6.8514 1.0364z"/>
   <path d="m30.455 27.013c4.2317 0 7.2544-2.24 8.094-6.9873h-0.8732c-0.8732 3.3097-3.3585 4.3461-5.4744 4.3461-3.9294 0-6.2132-3.7109-6.146-8.0905 0.0336-4.2125 2.0487-6.0178 4.1645-6.0178 2.0151 0 3.4257 1.4041 3.4257 4.8476 0.403 0.0669 0.7725 0.1003 1.1419 0.1003 1.6793 0 2.6868-0.8358 2.6868-2.1062 0-2.4405-3.157-3.8447-6.3812-3.8447-4.937 0-9.2023 3.6107-9.2023 9.0267 0 5.0817 3.4257 8.7258 8.5642 8.7258z"/>
   <path d="m40.147 26.612h8.5642v-0.9027l-0.9068-0.0668c-1.1755-0.1003-1.2762-0.1672-1.2762-1.237v-7.89c0-3.711 1.5785-4.8477 3.3249-4.8477 1.8807 0 2.9891 1.0364 2.9891 4.8142v7.9235c0 1.0698-0.1344 1.1367-1.2763 1.237l-0.9068 0.0668v0.9027h8.5642v-0.9027l-1.0411-0.0668c-1.1419-0.0669-1.3098-0.1672-1.3098-1.237v-8.6924c0-4.8142-1.9815-6.4524-5.0042-6.4524-2.7204 0-4.6348 1.5379-5.34 4.3128v-13.574l-6.5491 2.3402v0.20059l2.5188 1.7385v20.126c0 1.0698-0.1679 1.1701-1.3098 1.237l-1.0411 0.0668z"/>
   <path d="m5.7892 52.396c-1.7436 0-3.1444-0.4485-4.2023-1.3456-1.0579-0.9166-1.5869-2.1452-1.5869-3.6859 0-0.9556 0.32326-1.8917 0.96977-2.8083 0.64651-0.9361 1.6946-1.8527 3.1444-2.7498-0.66611-0.7021-1.1755-1.2969-1.5281-1.7844-0.35264-0.5071-0.59753-0.9751-0.73467-1.4042-0.11755-0.429-0.17632-0.9166-0.17632-1.4626 0-0.7606 0.23509-1.492 0.70529-2.194 0.47019-0.7216 1.1167-1.3067 1.9395-1.7552 0.84242-0.4681 1.8024-0.7021 2.8799-0.7021 1.5673 0 2.7918 0.3608 3.6734 1.0824 0.9012 0.702 1.3518 1.6089 1.3518 2.7205 0 0.8776-0.4114 1.6674-1.2343 2.3695-0.8032 0.7021-1.9787 1.4627-3.5264 2.2818 0.13714 0.156 0.29387 0.3217 0.4702 0.4973l0.52896 0.5265 4.6432 4.622c0.529-0.8191 1.0285-1.7454 1.4987-2.779 0.4702-1.0531 0.9208-2.2135 1.3518-3.4812l-2.8799-1.1408v-0.4681h7.0529v0.4681l-2.5273 1.0823c-0.6073 1.3652-1.2147 2.6523-1.822 3.8615-0.6073 1.1896-1.244 2.2622-1.9101 3.2178l3.2325 3.2178 2.4391 1.0532v0.468h-5.1721l-2.4097-2.3988c-0.8424 0.8581-1.773 1.5212-2.7918 1.9893-0.99916 0.468-2.1257 0.702-3.3795 0.702zm-1.2343-15.972c0 0.6631 0.17632 1.2774 0.52897 1.843 0.35264 0.546 0.9012 1.2091 1.6457 1.9892 0.84243-0.6241 1.4889-1.2286 1.9395-1.8137 0.47019-0.6046 0.70529-1.3067 0.70529-2.1062 0-0.7411-0.2253-1.3457-0.6759-1.8137-0.43101-0.4681-1.009-0.7021-1.7338-0.7021-0.6857 0-1.2636 0.234-1.7338 0.7021-0.4506 0.468-0.6759 1.1018-0.6759 1.9014zm-1.5575 10.122c0 1.2481 0.39183 2.2135 1.1755 2.8961 0.78365 0.6825 1.7338 1.0238 2.8505 1.0238 1.5085 0 2.8799-0.5265 4.1142-1.5796l-4.4081-4.4173c-0.37224-0.351-0.71508-0.6825-1.0286-0.9946-0.31346-0.3315-0.60733-0.6338-0.8816-0.9068-0.80325 0.6826-1.3126 1.3066-1.5281 1.8722-0.19591 0.5655-0.29387 1.2676-0.29387 2.1062z"/>
   <path d="m32.852 52.455c2.4685 0 5.5835-0.4095 7.3468-1.1701l1.3812-6.9622h-0.6172l-3.5558 5.4411c-0.529 0.819-0.9698 1.0823-1.5575 1.2871-0.6759 0.2048-1.5869 0.2925-2.6742 0.2925-5.848 0-8.8749-4.973-8.8749-11.175 0-7.0792 4.2317-9.6535 8.5516-9.6535 1.058 0 1.969 0.0878 2.6449 0.2925 0.5877 0.1755 1.0285 0.4388 1.5575 1.2579l3.5558 5.4703h0.6171l-1.293-6.9915c-1.7338-0.7605-4.4962-1.1701-6.9353-1.1701-7.67 0-12.96 4.5343-12.96 11.555 0 7.0208 5.2603 11.526 12.813 11.526z"/>
   <path d="m50.435 52.455c4.3199 0 8.052-3.1593 8.052-7.8691 0-4.3294-3.4088-7.6643-7.9638-7.6643-4.2905 0-8.0521 3.1594-8.0521 7.8691 0 4.3587 3.4383 7.6643 7.9639 7.6643zm0.0588-0.9946c-2.1747 0-4.026-1.8137-4.026-6.7867 0-5.0023 1.8513-6.7867 4.026-6.7867 2.1158 0 3.9672 1.7844 3.9672 6.7867 0 4.973-1.8514 6.7867-3.9672 6.7867z"/>
  </g>
 </g>
</svg>
